<?xml version="1.0" encoding="UTF-8"?>
<svg id="Layer_1" xmlns="http://www.w3.org/2000/svg" version="1.1" xmlns:x="ns_extend;" viewBox="0 0 90.7 90.7">
  <!-- Generator: Adobe Illustrator 29.5.1, SVG Export Plug-In . SVG Version: 2.1.0 Build 141)  -->
  <defs>
    <style>
      .st0 {
        fill: #253b73;
      }

      .st0, .st1, .st2 {
        fill-rule: evenodd;
      }

      .st1 {
        fill: #b52532;
      }

      .st2 {
        fill: #fffffe;
      }
    </style>
  </defs>
  <path class="st2" d="M55.8.9h-20.9c-5,0-9.2,4.2-9.2,9.2v70.4c0,5.1,4.2,9.3,9.2,9.3h20.8c5.1,0,9.2-4.2,9.2-9.2V10.1c0-5-4.1-9.2-9.1-9.2"/>
  <path class="st1" d="M50.6,17.2v.3c.7.4,1,.7,1.6,1.1,1.7,1.1,3.8,3,3.5,9.5.5,1.4.7,4.3,1.2,5.1.9,1.7,1.4,2.9,1.7,4.5,0,0,.3,2.6.6,2.8,1.7.4,1.3.6,1.5.9.3.4,1.3.3,1.3,1.3.4.5.6,1,.8,1.4V10.1c0-3.9-3.2-7.1-7.1-7.1h-6.8c1.1.4,1.7.9,2,1.5.9,0,1.9,2,.3,4.9.7.5.2,1.2-.4,2-.2.3-.3.8-.8.7-.6,1.3-1.4,2.5-1.9,2.6-.2.2-.3.8,0,1.1,1,.4,1.9.9,2.4,1.4M62.8,48.7c-1,2.4-3.3,4-5.8,4s-6.3-2.8-6.3-6.3h0c0-3,2-5.4,4.8-6.1-.8-1.7-2.3-4.7-2.7-5.7s-1.4-7-1.6-8.1c0-.3-2.7,1.5-2.7,1.6-.2.2-2,4.9-2,5.2v.8s.9,0,1.4,1.6c.5,1.5,2.1,7.3,2.1,7.3,0,0-.4.5-.5.4,2,6.7,1.3,9.5,2.2,11.4,1.2,2.7,1.4,2.4,2.4,4.6.7,1.6,1.4,8.3,1.7,8.6,1.1,1.4,1.6,2.4,1.6,3.2s-.9,3.1-.6,4.3c.2.8.3,2.5.7,2.9,0,0,.3.7.2,1,0,0,0,.3,0,.4.6,2.1,2.5,5.6-.6,7.5h0c3.4-.6,5.9-3.5,5.9-7v-31.8h-.4Z"/>
  <path class="st0" d="M54.9,79.3c-1.2-1-.4-1.4-.4-1.8-.8-3.1-3.2-4.9-1.9-6-.3-1.1-1-2.3-1-2.3-3.8-2.2-7.1-5.7-7.6-6.3-.7-.8-1.8-1.4-2-2-.9-.9-5.4-7.2-6.5-9.6l-1.8-.3c-.9-3.4-3.6-6.2-3.7-9.7,0-1.3.6-4.1.8-4.5.2-.6,1.3-1.4,1.3-1.4v-.9c-4,0-2.8-.3-3.5-1.8-.5-1.1,0-1.4,0-2,.6-2.2,2.3-5.6,3-7.1.2-.8,1-2.6,1-2.6,3-6,4.1-5.6,7.6-5.9l.2-.3c3.6-.2,3-.4,3.5-3.9-.5.2-.7-1.1-.7-1.1-.3-1.9.6-1.5,1-1.6,0-3.2.4-4.2,2.7-5h-11.8c-3.9,0-7.1,3.2-7.1,7.1h0v70.4c0,3.9,3.2,7.1,7.1,7.1h20.8c-2.3-1.3-.9-3.7-.9-8.3"/>
</svg>